PathFileType	4	(X/Y/Z)	TVC_16_BWA4_walk_RCNL2025.trc
DataRate	CameraRate	NumFrames	NumMarkers	Units	OrigDataRate	OrigDataStartFrame	OrigNumFrames
100	100	11	27	mm	100	474	947
Frame#	Time	R_Shoulder			L_Shoulder			C7			J_Notch			R_Elbow			L_Elbow			R_Wrist			L_Wrist			R_Asis			L_Asis			R_Psis			L_Psis			Sacral			Thoracic			Sternum			R_Thigh_Lateral			R_Knee_Lateral			R_Shank_Lateral			R_Ankle_Lateral			R_Heel			R_Toe			L_Thigh_Lateral			L_Knee_Lateral			L_Shank_Lateral			L_Ankle_Lateral			L_Heel			L_Toe		
		X1	Y1	Z1	X2	Y2	Z2	X3	Y3	Z3	X4	Y4	Z4	X5	Y5	Z5	X6	Y6	Z6	X7	Y7	Z7	X8	Y8	Z8	X9	Y9	Z9	X10	Y10	Z10	X11	Y11	Z11	X12	Y12	Z12	X13	Y13	Z13	X14	Y14	Z14	X15	Y15	Z15	X16	Y16	Z16	X17	Y17	Z17	X18	Y18	Z18	X19	Y19	Z19	X20	Y20	Z20	X21	Y21	Z21	X22	Y22	Z22	X23	Y23	Z23	X24	Y24	Z24	X25	Y25	Z25	X26	Y26	Z26	X27	Y27	Z27
474	4.73000000	-511.334686	1277.533691	578.437134	-521.921631	1292.199829	251.234009	-579.683411	1342.320557	426.137848	-447.596924	1207.036621	421.559326	-497.086731	964.574036	653.196594	-522.889038	969.436646	181.736389	-350.394318	784.615875	627.503754	-431.758133	784.172394	257.267311	-507.480835	860.357788	536.207214	-523.337463	877.443787	272.464752	-686.276428	900.504211	463.433105	-688.049622	899.306152	356.758514	-687.163025	899.905182	410.095810	-662.266968	1085.609619	410.089996	-431.606201	1013.122437	403.273407	-572.899414	577.061646	613.478394	-566.070374	403.781921	516.728455	-636.725403	255.402710	559.693054	-737.243652	63.100002	470.755981	-786.264954	69.387398	421.430511	-620.076538	37.210072	427.191528	-475.241211	598.864075	187.756088	-403.714355	437.940094	286.488159	-415.443481	287.495667	223.997208	-383.177307	63.885677	305.007843	-427.563751	52.489937	350.686676	-250.779068	61.156548	346.160065
475	4.74000000	-507.747650	1277.181274	577.449280	-517.147278	1291.638428	250.194061	-575.595093	1341.910034	424.861969	-443.422241	1206.658569	420.952271	-493.055786	964.270203	652.110168	-518.675049	968.734863	181.256195	-345.199249	785.442780	624.677490	-428.138092	783.337067	257.201500	-503.831482	860.083496	535.779785	-518.636597	876.764709	271.912781	-682.317261	900.194275	462.315613	-683.670227	898.867065	355.661346	-682.993744	899.530670	408.988480	-658.055115	1085.222168	408.763916	-427.446289	1012.690857	403.112244	-570.254028	576.952271	613.314941	-563.603577	403.452118	516.851929	-635.250854	255.448044	559.690979	-736.936707	63.762974	470.737610	-785.862244	70.413910	421.364349	-619.959900	37.190472	427.259674	-470.068817	597.725403	187.911621	-399.915009	437.031708	287.456940	-412.258301	286.161743	225.785751	-379.287811	63.139107	307.691010	-423.510712	51.965706	353.633636	-246.700531	60.143616	348.346039
476	4.75000000	-504.058807	1276.860718	576.385681	-512.357056	1291.066162	249.083984	-571.433655	1341.508179	423.522156	-439.173737	1206.292603	420.260132	-488.900787	964.027710	651.039368	-514.358459	968.024292	180.719879	-339.951813	786.300446	621.941864	-424.301910	782.556732	257.084427	-500.095673	859.826782	535.355103	-513.857788	876.086731	271.356659	-678.271423	899.897278	461.162537	-679.191589	898.429382	354.524780	-678.731506	899.163330	407.843658	-653.761719	1084.835449	407.413849	-423.206085	1012.272339	402.869598	-567.498047	576.856201	613.142334	-561.068665	403.129883	516.966614	-633.715698	255.520813	559.693970	-736.606018	64.468964	470.731537	-785.435608	71.499435	421.321228	-619.840576	37.173519	427.333801	-465.023743	596.492615	188.055237	-396.057617	436.120331	288.422180	-409.323700	284.836334	227.517441	-376.027435	62.360878	310.181915	-420.116882	51.449322	356.359131	-243.253815	58.849724	350.377258
477	4.76000000	-500.263641	1276.581909	575.247925	-507.552979	1290.489136	247.904037	-567.196350	1341.121948	422.120148	-434.849182	1205.945557	419.479279	-484.623962	963.854126	649.984558	-509.929779	967.309937	180.128494	-334.661804	787.187256	619.313721	-420.241928	781.831360	256.909843	-496.275665	859.591003	534.938477	-509.003082	875.421143	270.803375	-674.140625	899.622498	459.970642	-674.613831	898.004089	353.343689	-674.377228	898.813293	406.657166	-649.387146	1084.456543	406.044739	-418.880829	1011.871765	402.542053	-564.616943	576.773132	612.955139	-558.459351	402.817993	517.064148	-632.112061	255.625870	559.697815	-736.249634	65.224716	470.739685	-784.982117	72.649643	421.302490	-619.718079	37.160835	427.413483	-460.171997	595.175293	188.190414	-392.121063	435.234833	289.370575	-406.584808	283.555969	229.153030	-373.334625	61.575768	312.432739	-417.329773	50.957508	358.803040	-240.379074	57.315147	352.233704
478	4.77000000	-496.355042	1276.356201	574.038208	-502.734985	1289.914673	246.655457	-562.879517	1340.759888	420.657837	-430.445679	1205.624878	418.607178	-480.231537	963.758362	648.946350	-505.380646	966.598328	179.483475	-329.340866	788.103027	616.808533	-415.954895	781.159912	256.670143	-492.373779	859.380249	534.533997	-504.078888	874.781860	270.258698	-669.926941	899.381042	458.741394	-669.940430	897.605347	352.118073	-669.933685	898.493195	405.429733	-644.932373	1084.095581	404.663849	-414.466522	1011.494751	402.127808	-561.599548	576.703674	612.747742	-555.767273	402.520813	517.135742	-630.431274	255.769226	559.697205	-735.864258	66.038841	470.763824	-784.497620	73.872238	421.308685	-619.591003	37.154232	427.498322	-455.564362	593.797119	188.319183	-388.082428	434.407837	290.286499	-403.963135	282.361786	230.655090	-371.138733	60.811886	314.405487	-415.085358	50.510906	360.917877	-238.007477	55.594734	353.897827
479	4.78000000	-492.323761	1276.196289	572.758728	-497.901154	1289.351196	245.340424	-558.478577	1340.432129	419.137421	-425.960052	1205.339355	417.642426	-475.733459	963.750610	647.925781	-500.704407	965.897400	178.786423	-324.002396	789.048737	614.439850	-411.441467	780.541260	256.357018	-488.391876	859.199585	534.143738	-499.095367	874.184448	269.726257	-665.632507	899.184509	457.481354	-665.178162	897.249390	350.854126	-665.405334	898.216949	404.167740	-640.399170	1083.764526	403.280029	-409.960632	1011.147705	401.626465	-558.438232	576.649475	612.514832	-552.981934	402.244110	517.173157	-628.663940	255.958130	559.686340	-735.445435	66.921638	470.805176	-783.976868	75.177002	421.339386	-619.457336	37.155624	427.587921	-451.230896	592.394592	188.441574	-383.919891	433.672272	291.152832	-401.360016	281.295502	231.991211	-369.363892	60.097313	316.075195	-413.311584	50.130939	362.672791	-236.065201	53.754341	355.356415
480	4.79000000	-488.158875	1276.114990	571.411926	-493.048065	1288.808228	243.961990	-553.989197	1340.149902	417.561554	-421.389191	1205.098022	416.584900	-471.143341	963.841492	646.924011	-495.897125	965.216309	178.038986	-318.661255	790.026184	612.219727	-406.705994	779.974945	255.961975	-484.330750	859.055054	533.767273	-494.065216	873.645325	269.207001	-661.258972	899.044617	456.201996	-660.336060	896.953308	349.563995	-660.797516	897.998962	402.882996	-635.789612	1083.477051	401.903290	-405.362427	1010.837585	401.039093	-555.128479	576.613464	612.252075	-550.091187	401.994659	517.170166	-626.801086	256.200806	559.659912	-734.987000	67.884674	470.864349	-783.413391	76.575684	421.393036	-619.314270	37.166882	427.681824	-447.176361	591.014465	188.555450	-379.616486	433.057373	291.952362	-398.664734	280.394745	233.137085	-367.933411	59.456753	317.431915	-411.932251	49.836594	364.055878	-234.477829	51.865650	356.602509
481	4.80000000	-483.849243	1276.124512	570.000000	-488.171417	1288.295044	242.523895	-549.407654	1339.923950	415.933167	-416.730652	1204.909302	415.435638	-466.478058	964.041443	645.942810	-490.958252	964.565063	177.242661	-313.333588	791.037598	610.158630	-401.755875	779.462128	255.477173	-480.189545	858.953613	533.401733	-489.001892	873.180176	268.698700	-656.806946	898.971680	454.918823	-655.425232	896.733948	348.265198	-656.116089	897.852814	401.592010	-631.106262	1083.246948	400.543518	-400.673126	1010.571716	400.367737	-551.668091	576.599915	611.956665	-547.081238	401.779877	517.124084	-624.834900	256.506378	559.614014	-734.481384	68.940338	470.941101	-782.798950	78.081802	421.466736	-619.158325	37.189682	427.779388	-443.377411	589.709229	188.656555	-375.163544	432.584503	292.669098	-395.766968	279.687836	234.078781	-366.774078	58.908718	318.481354	-410.871490	49.641621	365.074738	-233.174591	50.000088	357.637085
482	4.81000000	-479.385040	1276.235840	568.524841	-483.266571	1287.820923	241.030212	-544.731812	1339.764404	414.255310	-411.983063	1204.781616	414.196838	-461.756897	964.359802	644.984131	-485.890961	963.953857	176.398529	-308.036423	792.085236	608.265625	-396.601349	779.005585	254.896118	-475.965454	858.902588	533.041138	-483.917297	872.802979	268.195984	-652.275635	898.973755	453.650269	-650.457275	896.606262	346.979218	-651.366455	897.790009	400.314743	-626.351501	1083.087036	399.209564	-395.895966	1010.357544	399.615173	-548.056641	576.614807	611.627869	-543.937073	401.607178	517.036743	-622.759155	256.884430	559.547119	-733.919495	70.101364	471.034454	-782.123657	79.710365	421.556335	-618.985535	37.225269	427.879425	-439.782654	588.531616	188.738846	-370.564087	432.263763	293.289337	-392.572174	279.189636	234.813828	-365.819672	58.463661	319.243713	-410.057831	49.552586	365.755127	-232.092072	48.222656	358.470001
483	4.82000000	-474.759521	1276.457642	566.987793	-478.329346	1287.393677	239.484924	-539.961853	1339.679810	412.531158	-407.146576	1204.721680	412.871735	-457.000916	964.803955	644.050171	-480.702240	963.392395	175.507172	-302.787216	793.170654	606.548706	-391.255020	778.609650	254.214264	-471.653625	858.909363	532.677307	-478.819580	872.525696	267.690887	-647.662781	899.055786	452.415680	-645.443604	896.581543	345.729279	-646.553192	897.818665	399.072479	-621.527832	1083.007690	397.908325	-391.035858	1010.202148	398.784607	-544.294373	576.665100	611.267456	-540.642517	401.483307	516.915833	-620.569519	257.344940	559.461121	-733.290894	71.380440	471.142731	-781.375122	81.477577	421.656769	-618.791504	37.274254	427.980255	-436.315796	587.529114	188.794998	-365.834808	432.091980	293.802765	-389.017212	278.898651	235.350891	-365.013916	58.123409	319.751587	-409.427673	49.568089	366.137756	-231.176697	46.586651	359.119812
484	4.83000000	-469.970825	1276.795410	565.389832	-473.356323	1287.019897	237.891724	-535.100464	1339.675903	410.763672	-402.223175	1204.735107	411.464569	-452.231934	965.378967	643.143250	-475.402344	962.889282	174.568512	-297.603317	794.294525	605.014709	-385.731781	778.279694	253.429520	-467.247711	858.980713	532.299561	-473.711548	872.357056	267.173431	-642.964966	899.218994	451.233490	-640.394470	896.666687	344.537811	-641.679718	897.942841	397.885651	-616.637512	1083.016235	396.643738	-386.098877	1010.112000	397.879456	-540.381470	576.758545	610.879639	-537.179932	401.413879	516.775208	-618.262878	257.897797	559.361511	-732.583252	72.789917	471.263794	-780.537964	83.400703	421.762268	-618.571533	37.336300	428.079376	-432.881989	586.738403	188.817062	-361.006378	432.052399	294.203125	-385.083588	278.796631	235.708160	-364.311707	57.881767	320.046234	-408.927704	49.679153	366.273956	-230.385941	45.129967	359.612366
